<?xml version="1.0" encoding="iso-8859-1"?>
<!-- Generator: Adobe Illustrator 19.0.0, SVG Export Plug-In . SVG Version: 6.00 Build 0)  -->
<svg version="1.1" id="Capa_1" xmlns="http://www.w3.org/2000/svg" xmlns:xlink="http://www.w3.org/1999/xlink" x="0px" y="0px"
	 viewBox="0 0 512 512" style="enable-background:new 0 0 512 512;" xml:space="preserve">
<g>
	<path style="fill:#F2F2F2;" d="M511.958,251.643c-21.859,26.624-64.69,24.545-64.69,24.545
		c-26.415,113.8-185.94,171.719-296.699,143.266C39.821,391.011,55.056,258.915,55.056,258.915h324.138
		c26.749,0,28.787-8.129,28.787-8.129c-23.709-56.226,12.873-86.371,12.873-86.371c28.453,5.089,35.558,53.854,35.558,53.854
		c23.353-4.19,42.109,0.794,53.582,5.59C511.143,232.981,511.812,242.249,511.958,251.643z"/>
	<rect x="89.6" y="207.433" style="fill:#F2F2F2;" width="45.39" height="41.32"/>
	<rect x="146.641" y="207.433" style="fill:#F2F2F2;" width="45.39" height="41.32"/>
	<rect x="317.743" y="207.433" style="fill:#F2F2F2;" width="45.39" height="41.32"/>
	<rect x="260.712" y="207.433" style="fill:#F2F2F2;" width="45.39" height="41.32"/>
	<rect x="260.712" y="101.763" style="fill:#F2F2F2;" width="45.39" height="41.32"/>
	<rect x="203.671" y="207.433" style="fill:#F2F2F2;" width="45.39" height="41.32"/>
	<rect x="146.641" y="154.593" style="fill:#F2F2F2;" width="45.39" height="41.32"/>
	<rect x="260.712" y="154.593" style="fill:#F2F2F2;" width="45.39" height="41.32"/>
	<rect x="203.671" y="154.593" style="fill:#F2F2F2;" width="45.39" height="41.32"/>
</g>
<g>
</g>
<g>
</g>
<g>
</g>
<g>
</g>
<g>
</g>
<g>
</g>
<g>
</g>
<g>
</g>
<g>
</g>
<g>
</g>
<g>
</g>
<g>
</g>
<g>
</g>
<g>
</g>
<g>
</g>
</svg>
